<?xml version="1.0" encoding="UTF-8"?>
<svg width="52px" height="47px" viewBox="0 0 52 47" version="1.1" xmlns="http://www.w3.org/2000/svg" xmlns:xlink="http://www.w3.org/1999/xlink">
    <!-- Generator: Sketch 54.1 (76490) - https://sketchapp.com -->
    <title>Group 8</title>
    <desc>Created with Sketch.</desc>
    <defs>
        <polygon id="path-1" points="0.866030769 0.482492308 35.4609231 0.482492308 35.4609231 35.0766462 0.866030769 35.0766462"></polygon>
    </defs>
    <g id="Homepage" stroke="none" stroke-width="1" fill="none" fill-rule="evenodd">
        <g id="Homepage---logged-out" transform="translate(-342.000000, -2004.000000)">
            <g id="Group-8" transform="translate(342.000000, 2004.000000)">
                <g id="Group-3" transform="translate(16.000000, 11.000000)">
                    <mask id="mask-2" fill="white">
                        <use xlink:href="#path-1"></use>
                    </mask>
                    <g id="Clip-2"></g>
                    <path d="M35.4611077,17.7791077 C35.4611077,27.3329538 27.7164923,35.0766462 18.1635692,35.0766462 C8.61064615,35.0766462 0.866030769,27.3329538 0.866030769,17.7791077 C0.866030769,8.22618462 8.61064615,0.482492308 18.1635692,0.482492308 C27.7164923,0.482492308 35.4611077,8.22618462 35.4611077,17.7791077" id="Fill-1" fill="#E5F3EB" mask="url(#mask-2)"></path>
                </g>
                <path d="M9.40667157,9.92424043 C9.11528084,9.92424043 8.87965007,10.1663817 8.87965007,10.4637643 L8.87965007,11.7398395 C8.39489821,11.5271603 8.05494236,11.0355123 8.05494236,10.4637643 C8.05494236,9.70051296 8.66110702,9.07904774 9.40667157,9.07904774 C10.1522361,9.07904774 10.7593001,9.70051296 10.7593001,10.4637643 C10.7593001,11.0355123 10.4184449,11.5271603 9.93369307,11.7398395 L9.93369307,10.4637643 C9.93369307,10.1663817 9.6980623,9.92424043 9.40667157,9.92424043 M25.2406999,10.4637643 C25.2406999,9.70051296 25.8477639,9.07904774 26.5933284,9.07904774 C27.338893,9.07904774 27.945957,9.70051296 27.945957,10.4637643 C27.945957,11.0355123 27.6051018,11.5271603 27.1203499,11.7398395 L27.1203499,10.4637643 C27.1203499,10.1663817 26.8847192,9.92424043 26.5933284,9.92424043 C26.3028371,9.92424043 26.0663069,10.1663817 26.0663069,10.4637643 L26.0663069,11.7398395 C25.5815551,11.5271603 25.2406999,11.0355123 25.2406999,10.4637643 M27.110457,12.8667631 C28.189682,12.6237012 29,11.6404051 29,10.4637643 C29,9.10482704 27.9207751,8 26.5933284,8 C25.2667811,8 24.1866569,9.10482704 24.1866569,10.4637643 C24.1866569,11.6330396 24.9879814,12.6098908 26.0573134,12.8603183 C25.9529883,17.3219782 22.3825525,20.9209523 18,20.9209523 C13.6174475,20.9209523 10.0470117,17.3219782 9.94358597,12.8603183 C11.0120186,12.6098908 11.8133431,11.6330396 11.8133431,10.4637643 C11.8133431,9.10482704 10.7332189,8 9.40667157,8 C8.07922492,8 7,9.10482704 7,10.4637643 C7,11.6404051 7.8112174,12.6237012 8.88954296,12.8667631 C8.99746546,17.9213468 13.0382634,22 18,22 C22.9617366,22 27.0034339,17.9213468 27.110457,12.8667631" id="Fill-4" fill="#1A171B"></path>
                <path d="M33.9948141,38.803895 L33.932706,38.7600886 C33.931779,38.7581839 33.930852,38.755327 33.928998,38.7534224 C32.1547455,37.5620789 24.0640058,31.8196319 24.0640058,26.0695665 C24.0640058,23.1840583 26.3499549,20.8356546 29.1587246,20.8356546 C30.6224365,20.8356546 32.0036467,21.5051306 32.9621509,22.6174321 C32.9612239,22.6183844 32.960297,22.6193367 32.95937,22.6193367 C33.1716499,22.8659858 33.3709521,23.1269195 33.5359557,23.4154703 C33.7278419,23.7487798 34.2627132,23.7487798 34.4536725,23.4164226 C35.3686084,21.8241554 37.0492352,20.8356546 38.8392465,20.8356546 C41.6480162,20.8356546 43.9339653,23.1840583 43.9339653,26.0695665 C43.9339653,31.8901031 35.6327996,37.7125443 33.9948141,38.803895 L33.9948141,38.803895 Z M3.25871663,33.4823703 C2.63021966,33.4823703 2.03231325,33.2023903 1.61887719,32.7148061 C1.20636812,32.2272219 1.02004379,31.5806014 1.10718054,30.9396948 L4.48419303,6.16527391 L31.214781,6.16527391 L33.3310916,21.4508487 C32.2066568,20.3775921 30.7234781,19.7395424 29.1587246,19.7395424 C25.7622454,19.7395424 22.9979711,22.5802919 22.9979711,26.0695665 C22.9979711,28.7131872 24.4505592,31.2853844 26.2859928,33.4823703 L3.25871663,33.4823703 Z M8.42944835,1.89605504 L8.42944835,5.04916316 L5.33145886,5.04916316 L8.42944835,1.89605504 Z M9.51587675,5.04916316 L26.1821703,5.04916316 L26.1821703,1.11611075 L9.51587675,1.11611075 L9.51587675,5.04916316 Z M27.2695257,1.89605504 L30.3675152,5.04916316 L27.2695257,5.04916316 L27.2695257,1.89605504 Z M38.8392465,19.7395424 C37.1808673,19.7395424 35.600355,20.4423494 34.4545995,21.6355975 L32.2251965,5.53008118 C32.2242695,5.52531962 32.2214886,5.52151037 32.2205616,5.51579649 C32.2112917,5.45389615 32.193679,5.39580506 32.1640154,5.34057091 C32.1603074,5.33390472 32.1538185,5.32819084 32.1491836,5.31962003 C32.1260089,5.2805752 32.1019073,5.24343499 32.0694628,5.21105635 L27.110084,0.162845511 L27.110084,0.162845511 L27.10823,0.161893198 C27.0933982,0.145703878 27.0730045,0.139037688 27.0563188,0.125705307 C27.0183123,0.095231293 26.9803059,0.0619003405 26.9348835,0.0428540819 C26.8690675,0.0152370069 26.7986165,0 26.7253845,0 L8.97266255,0 C8.90128458,0 8.8299066,0.0152370069 8.76501753,0.0428540819 C8.7186682,0.0619003405 8.68066175,0.095231293 8.64265529,0.125705307 C8.62596953,0.139037688 8.60557582,0.145703878 8.59074404,0.161893198 L8.58889006,0.162845511 L8.58889006,0.162845511 L3.62951131,5.21105635 C3.59706677,5.24343499 3.57296512,5.2805752 3.54979045,5.31962003 C3.54515552,5.32819084 3.53866661,5.33390472 3.53495867,5.34057091 C3.50529509,5.39580506 3.48768235,5.45389615 3.47841248,5.51579649 C3.47748549,5.52151037 3.47470453,5.52531962 3.47377754,5.53008118 L0.0318759895,30.7854201 C-0.0997561196,31.7463038 0.180193859,32.7148061 0.799420963,33.4471347 C1.41864807,34.1794634 2.31504419,34.5984811 3.25871663,34.5984811 L27.2787956,34.5984811 C30.1088859,37.6001714 33.3579742,39.6885937 33.7037403,39.905721 L33.7167181,39.9200057 L33.9948141,40 C33.9966681,40 33.9975951,39.9990477 33.998522,39.9990477 C34.000376,39.9990477 34.001303,40 34.003157,40 C34.003157,40 34.281253,39.9200057 34.281253,39.9200057 L34.2951578,39.905721 C34.9190198,39.5124158 45,33.0376402 45,26.0695665 C45,22.5802919 42.2366527,19.7395424 38.8392465,19.7395424 L38.8392465,19.7395424 Z" id="Fill-6" fill="#1A171B"></path>
            </g>
        </g>
    </g>
</svg>