<?xml version="1.0" encoding="UTF-8"?>
<svg width="51px" height="48px" viewBox="0 0 51 48" version="1.1" xmlns="http://www.w3.org/2000/svg" xmlns:xlink="http://www.w3.org/1999/xlink">
    <!-- Generator: Sketch 54.1 (76490) - https://sketchapp.com -->
    <title>Group 11 Copy</title>
    <desc>Created with Sketch.</desc>
    <defs>
        <polygon id="path-1" points="0.0001875 0.117741882 45 0.117741882 45 42.0848319 0.0001875 42.0848319"></polygon>
    </defs>
    <g id="Homepage" stroke="none" stroke-width="1" fill="none" fill-rule="evenodd">
        <g id="Homepage---logged-out" transform="translate(-342.000000, -2131.000000)">
            <g id="Group-11-Copy" transform="translate(342.000000, 2131.000000)">
                <circle id="Oval" fill="#E5F3EB" cx="33.5" cy="17.5" r="17.5"></circle>
                <g id="Group-10" transform="translate(0.000000, 5.000000)">
                    <g id="Group-3" transform="translate(0.000000, 0.797421)">
                        <mask id="mask-2" fill="white">
                            <use xlink:href="#path-1"></use>
                        </mask>
                        <g id="Clip-2"></g>
                        <path d="M34.2545625,21.7787681 C32.7883125,21.926066 31.3351875,21.7696191 29.93175,21.3158319 C29.378625,21.1374277 28.773,21.1410872 28.1795625,21.3258957 L24.762375,22.3935766 L25.0755,19.2774489 C25.1420625,18.605917 24.9770625,17.9490234 24.6076875,17.4302787 C23.1639375,15.3992149 22.52925,12.9161936 22.8208125,10.4395766 C23.3589375,5.8669383 27.136125,2.12319362 31.8020625,1.53674681 C34.819875,1.15432128 37.741125,2.00517234 40.0183125,3.92553404 C42.2655,5.82119362 43.583625,8.56770426 43.6351875,11.4605979 C43.728,16.7111723 39.6076875,21.2444702 34.2545625,21.7787681 L34.2545625,21.7787681 Z M34.4889375,33.4711085 L18.6076875,40.3941085 L18.6076875,21.8967894 L23.663625,19.6946404 L23.3045625,23.2709596 C23.2820625,23.4941936 23.3758125,23.7128532 23.5539375,23.8546617 C23.6776875,23.9507255 23.828625,24.0019596 23.982375,24.0019596 C24.0526875,24.0019596 24.1220625,23.9909809 24.1914375,23.9699383 L28.594875,22.5939383 C28.906125,22.4951298 29.2295625,22.4914702 29.502375,22.5783851 C31.0895625,23.0934702 32.734875,23.2682149 34.392375,23.1026191 C34.426125,23.0989596 34.456125,23.0925553 34.4889375,23.0888957 L34.4889375,33.4711085 Z M17.9251875,20.7367043 L10.493625,17.4979809 L21.4520625,12.7213213 C21.6433125,14.6764489 22.3295625,16.5611298 23.487375,18.1878106 C23.5089375,18.2198319 23.524875,18.2545979 23.543625,18.2884489 L17.9251875,20.7367043 Z M17.2426875,40.3941085 L1.36425,33.4711085 L1.36425,14.976534 L11.2905,19.303066 L17.2426875,21.8967894 L17.2426875,40.3941085 Z M17.9251875,7.16242766 L21.7501875,8.83027872 C21.6264375,9.3069383 21.52425,9.79091702 21.466125,10.2877043 C21.42675,10.6216404 21.40425,10.9555766 21.394875,11.2885979 L8.8220625,16.7688106 L2.35425,13.9500234 L17.9251875,7.16242766 Z M44.9983125,11.4358957 C44.9401875,8.16606596 43.4505,5.06183191 40.909875,2.91915106 C38.3364375,0.748108511 35.041125,-0.208870213 31.6276875,0.216555319 C27.318,0.757257447 23.6805,3.68217234 22.158,7.54942766 L18.2026875,5.82576809 C18.0255,5.74891702 17.823,5.74891702 17.64675,5.82576809 L0.40425,13.342534 C0.3901875,13.3489383 0.379875,13.3590021 0.3676875,13.3663213 C0.3489375,13.3754702 0.3283125,13.3809596 0.3114375,13.3928532 C0.2964375,13.4020021 0.2851875,13.4138957 0.271125,13.4248745 C0.2514375,13.4404277 0.2326875,13.455066 0.2139375,13.4724489 C0.18675,13.4971511 0.1633125,13.5255128 0.1408125,13.5547894 C0.12675,13.5721723 0.1126875,13.5904702 0.1005,13.609683 C0.0789375,13.643534 0.063,13.6801298 0.0489375,13.7167255 C0.0414375,13.7359383 0.033,13.7533213 0.027375,13.7716191 C0.0105,13.8301723 0.0001875,13.8887255 0.0001875,13.9500234 L0.0001875,33.9020234 C0.0001875,34.1645979 0.158625,34.4024702 0.40425,34.5095128 L17.64675,42.0271936 C17.658,42.032683 17.6701875,42.0299383 17.6814375,42.0345128 C17.75925,42.0637894 17.8389375,42.0830021 17.9214375,42.083917 C17.9233125,42.083917 17.92425,42.0848319 17.9251875,42.0848319 L17.9251875,42.0848319 L17.926125,42.0848319 C17.9270625,42.0848319 17.928,42.083917 17.9289375,42.083917 C18.0114375,42.0830021 18.0920625,42.0637894 18.1689375,42.0345128 C18.1801875,42.0299383 18.1933125,42.032683 18.203625,42.0271936 L35.4489375,34.5095128 C35.6945625,34.4024702 35.853,34.1645979 35.853,33.9020234 L35.853,22.8537681 C41.1751875,21.6397043 45.094875,16.8850021 44.9983125,11.4358957 L44.9983125,11.4358957 Z" id="Fill-1" fill="#1A171B" mask="url(#mask-2)"></path>
                    </g>
                    <path d="M38.25675,6.80324043 L27.1651875,17.6273468 C26.899875,17.8862617 26.899875,18.3080277 27.1651875,18.5678574 C27.29925,18.6986872 27.473625,18.7627298 27.648,18.7627298 C27.822375,18.7627298 27.99675,18.6986872 28.129875,18.5678574 L39.2205,7.74466596 C39.48675,7.48483617 39.48675,7.06307021 39.2205,6.80324043 C38.95425,6.54432553 38.523,6.54432553 38.25675,6.80324043" id="Fill-4" fill="#1A171B"></path>
                    <path d="M37.6392187,17.0376979 C37.1114062,17.5536979 36.1907812,17.5536979 35.6629687,17.0376979 C35.3985937,16.7806128 35.2532812,16.4384426 35.2532812,16.0734 C35.2532812,15.7092723 35.3985937,15.3671021 35.6629687,15.1091021 C35.9357812,14.8428681 36.2929687,14.7102085 36.6510937,14.7102085 C37.0092187,14.7102085 37.3664062,14.8428681 37.6392187,15.1091021 C37.9035937,15.3671021 38.0489062,15.7092723 38.0489062,16.0734 C38.0489062,16.4384426 37.9035937,16.7806128 37.6392187,17.0376979 M34.6982812,14.1676766 C34.1770312,14.6772723 33.8892187,15.3533787 33.8892187,16.0734 C33.8892187,16.7934213 34.1770312,17.4704426 34.6982812,17.9782085 C35.2195312,18.4868894 35.9132812,18.7686766 36.6510937,18.7686766 C37.3889062,18.7686766 38.0817187,18.4878043 38.6029687,17.9782085 C39.1251562,17.4704426 39.4129687,16.7934213 39.4129687,16.0734 C39.4129687,15.3533787 39.1251562,14.6772723 38.6029687,14.1676766 C37.5267187,13.1182936 35.7754687,13.1182936 34.6982812,14.1676766" id="Fill-6" fill="#1A171B"></path>
                    <path d="M28.7458125,8.35691277 C29.0101875,8.09891277 29.3608125,7.95710426 29.734875,7.95710426 C30.108,7.95710426 30.458625,8.09891277 30.7220625,8.35691277 C31.26675,8.88846596 31.26675,9.75395532 30.7220625,10.2855085 C30.1951875,10.8015085 29.273625,10.8024234 28.7458125,10.2855085 C28.201125,9.75395532 28.201125,8.88846596 28.7458125,8.35691277 M29.734875,12.0164872 C30.47175,12.0164872 31.1655,11.7347 31.68675,11.226934 C32.763,10.1757213 32.763,8.4667 31.68675,7.41640213 C31.1655,6.90772128 30.47175,6.62593404 29.734875,6.62593404 C28.9970625,6.62593404 28.3033125,6.90680638 27.7820625,7.41640213 C26.704875,8.4667 26.704875,10.1757213 27.7820625,11.226934 C28.3033125,11.7356149 28.9970625,12.0164872 29.734875,12.0164872" id="Fill-8" fill="#1A171B"></path>
                </g>
            </g>
        </g>
    </g>
</svg>