<?xml version="1.0" encoding="UTF-8"?>
<svg width="51px" height="49px" viewBox="0 0 51 49" version="1.1" xmlns="http://www.w3.org/2000/svg" xmlns:xlink="http://www.w3.org/1999/xlink">
    <!-- Generator: Sketch 54.1 (76490) - https://sketchapp.com -->
    <title>Group 9 Copy</title>
    <desc>Created with Sketch.</desc>
    <g id="Homepage" stroke="none" stroke-width="1" fill="none" fill-rule="evenodd">
        <g id="Homepage---logged-out" transform="translate(-768.000000, -2264.000000)">
            <g id="Group-9-Copy" transform="translate(768.000000, 2264.000000)">
                <circle id="Oval" fill="#E5F3EB" cx="32" cy="30" r="19"></circle>
                <g id="Group-21" fill="#1A171B">
                    <g id="Group-20">
                        <path d="M10.6523556,4.79526531 C10.6523556,4.41881633 10.9421333,4.11277551 11.2994667,4.11277551 L13.9759111,4.11277551 C14.2648,5.28718367 15.2683556,6.1602449 16.4710222,6.1602449 C17.6710222,6.1602449 18.6745778,5.28718367 18.9643556,4.11277551 L21.6416889,4.11277551 C21.9990222,4.11277551 22.2888,4.41881633 22.2888,4.79526531 L22.2888,7.52616327 C22.2888,7.90355102 21.9990222,8.20959184 21.6416889,8.20959184 L11.2994667,8.20959184 C10.9421333,8.20959184 10.6523556,7.90355102 10.6523556,7.52616327 L10.6523556,4.79526531 Z M16.4710222,2.06436735 C17.1830222,2.06436735 17.7634667,2.67738776 17.7634667,3.42934694 C17.7634667,4.18318367 17.1830222,4.79526531 16.4710222,4.79526531 C15.7572444,4.79526531 15.1776889,4.18318367 15.1776889,3.42934694 C15.1776889,2.67738776 15.7572444,2.06436735 16.4710222,2.06436735 L16.4710222,2.06436735 Z M31.7785778,41.3802857 C31.4212444,41.3802857 31.1314667,41.6853878 31.1314667,42.0618367 L31.1314667,42.3462857 C31.1314667,43.4756327 30.2621333,44.3946939 29.1919111,44.3946939 L3.74835556,44.3946939 C2.67991111,44.3946939 1.80968889,43.4756327 1.80968889,42.3462857 L1.80968889,8.89114286 C1.80968889,7.76273469 2.67991111,6.84461224 3.74835556,6.84461224 L9.35991111,6.84461224 L9.35991111,7.52616327 C9.35991111,8.6555102 10.2292444,9.5755102 11.2994667,9.5755102 L21.6416889,9.5755102 C22.7110222,9.5755102 23.5812444,8.6555102 23.5812444,7.52616327 L23.5812444,6.84461224 L29.1919111,6.84461224 C30.2621333,6.84461224 31.1314667,7.76273469 31.1314667,8.89114286 L31.1314667,15.5911837 C31.1314667,15.9676327 31.4212444,16.275551 31.7785778,16.275551 C32.1350222,16.275551 32.4239111,15.9676327 32.4239111,15.5911837 L32.4239111,8.89114286 C32.4239111,7.00889796 30.9741333,5.47869388 29.1919111,5.47869388 L23.5812444,5.47869388 L23.5812444,4.79526531 C23.5812444,3.66591837 22.7110222,2.74685714 21.6416889,2.74685714 L18.9643556,2.74685714 C18.6745778,1.57244898 17.6710222,0.69844898 16.4710222,0.69844898 C15.2683556,0.69844898 14.2648,1.57244898 13.9759111,2.74685714 L11.2994667,2.74685714 C10.2292444,2.74685714 9.35991111,3.66591837 9.35991111,4.79526531 L9.35991111,5.47869388 L3.74835556,5.47869388 C1.96702222,5.47869388 0.516355556,7.00889796 0.516355556,8.89114286 L0.516355556,42.3462857 C0.516355556,44.2285306 1.96702222,45.7606122 3.74835556,45.7606122 L29.1919111,45.7606122 C30.9741333,45.7606122 32.4239111,44.2285306 32.4239111,42.3462857 L32.4239111,42.0618367 C32.4239111,41.6853878 32.1350222,41.3802857 31.7785778,41.3802857 L31.7785778,41.3802857 Z" id="Fill-4"></path>
                        <path d="M9.41973333,15.9331796 C9.41973333,16.3086898 9.12995556,16.6166082 8.77351111,16.6166082 L6.83395556,16.6166082 C6.47751111,16.6166082 6.18773333,16.3086898 6.18773333,15.9331796 L6.18773333,13.8847714 C6.18773333,13.5083224 6.47751111,13.2022816 6.83395556,13.2022816 L8.77351111,13.2022816 C9.12995556,13.2022816 9.41973333,13.5083224 9.41973333,13.8847714 L9.41973333,15.9331796 Z M10.7130667,13.8847714 C10.7130667,12.7544857 9.84373333,11.8363633 8.77351111,11.8363633 L6.83395556,11.8363633 C5.76462222,11.8363633 4.8944,12.7544857 4.8944,13.8847714 L4.8944,15.9331796 C4.8944,17.0625265 5.76462222,17.9815878 6.83395556,17.9815878 L8.77351111,17.9815878 C9.84373333,17.9815878 10.7130667,17.0625265 10.7130667,15.9331796 L10.7130667,13.8847714 Z" id="Fill-6"></path>
                        <path d="M9.41973333,25.4923551 C9.41973333,25.8678653 9.12995556,26.1757837 8.77351111,26.1757837 L6.83395556,26.1757837 C6.47751111,26.1757837 6.18773333,25.8678653 6.18773333,25.4923551 L6.18773333,23.4439469 C6.18773333,23.0684367 6.47751111,22.7614571 6.83395556,22.7614571 L8.77351111,22.7614571 C9.12995556,22.7614571 9.41973333,23.0684367 9.41973333,23.4439469 L9.41973333,25.4923551 Z M10.7130667,23.4439469 C10.7130667,22.3146 9.84373333,21.3964776 8.77351111,21.3964776 L6.83395556,21.3964776 C5.76462222,21.3964776 4.8944,22.3146 4.8944,23.4439469 L4.8944,25.4923551 C4.8944,26.621702 5.76462222,27.5407633 6.83395556,27.5407633 L8.77351111,27.5407633 C9.84373333,27.5407633 10.7130667,26.621702 10.7130667,25.4923551 L10.7130667,23.4439469 Z" id="Fill-8"></path>
                        <path d="M9.41973333,35.0515306 C9.41973333,35.4279796 9.12995556,35.7340204 8.77351111,35.7340204 L6.83395556,35.7340204 C6.47751111,35.7340204 6.18773333,35.4279796 6.18773333,35.0515306 L6.18773333,33.0021837 C6.18773333,32.6266735 6.47751111,32.3206327 6.83395556,32.3206327 L8.77351111,32.3206327 C9.12995556,32.3206327 9.41973333,32.6266735 9.41973333,33.0021837 L9.41973333,35.0515306 Z M8.77351111,30.9556531 L6.83395556,30.9556531 C5.76462222,30.9556531 4.8944,31.8737755 4.8944,33.0021837 L4.8944,35.0515306 C4.8944,36.1808776 5.76462222,37.0999388 6.83395556,37.0999388 L8.77351111,37.0999388 C9.84373333,37.0999388 10.7130667,36.1808776 10.7130667,35.0515306 L10.7130667,33.0021837 C10.7130667,31.8737755 9.84373333,30.9556531 8.77351111,30.9556531 L8.77351111,30.9556531 Z" id="Fill-10"></path>
                        <path d="M28.0464889,14.9090694 C28.0464889,14.5316816 27.7567111,14.2256408 27.4002667,14.2256408 L13.9051556,14.2256408 C13.5478222,14.2256408 13.2580444,14.5316816 13.2580444,14.9090694 C13.2580444,15.2855184 13.5478222,15.5915592 13.9051556,15.5915592 L27.4002667,15.5915592 C27.7567111,15.5915592 28.0464889,15.2855184 28.0464889,14.9090694" id="Fill-12"></path>
                        <path d="M13.9049778,25.151298 L13.9058667,25.151298 L20.3023111,25.1456653 C20.6596444,25.1447265 20.9485333,24.8396245 20.9485333,24.4631755 C20.9476444,24.0857878 20.6587556,23.7806857 20.3014222,23.7806857 L20.3005333,23.7806857 L13.9040889,23.7863184 C13.5476444,23.7863184 13.2578667,24.0914204 13.2578667,24.4688082 C13.2587556,24.8461959 13.5485333,25.151298 13.9049778,25.151298" id="Fill-14"></path>
                        <path d="M13.9049778,34.7104735 L20.9485333,34.7104735 C21.3049778,34.7104735 21.5938667,34.4053714 21.5938667,34.0270449 C21.5938667,33.6496571 21.3049778,33.3445551 20.9485333,33.3445551 L13.9049778,33.3445551 C13.5485333,33.3445551 13.2578667,33.6496571 13.2578667,34.0270449 C13.2578667,34.4053714 13.5485333,34.7104735 13.9049778,34.7104735" id="Fill-16"></path>
                        <path d="M32.424,37.9662408 L37.5955556,37.9662408 L37.5955556,28.9774653 L32.424,28.9774653 L32.424,37.9662408 Z M25.96,37.965302 L31.1315556,37.965302 L31.1315556,28.9765265 L25.96,28.9765265 L25.96,37.965302 Z M24.9902222,25.1453837 L29.4853333,25.1453837 C29.5031111,25.1453837 29.5191111,25.1510163 29.536,25.1510163 L31.1315556,25.1510163 L31.1315556,27.6106082 L24.9902222,27.6106082 L24.9902222,25.1453837 Z M27.9395556,22.0999959 C27.9395556,21.1706082 28.656,20.4139551 29.536,20.4139551 C30.4151111,20.4139551 31.1315556,21.1706082 31.1315556,22.0999959 L31.1315556,23.7804041 L29.4853333,23.7804041 C28.6293333,23.751302 27.9395556,23.0115469 27.9395556,22.0999959 L27.9395556,22.0999959 Z M32.424,21.4381592 C32.424,20.1445265 33.4213333,19.0912204 34.6471111,19.0912204 C35.872,19.0912204 36.8693333,20.1445265 36.8693333,21.4381592 C36.8693333,22.7148939 35.8986667,23.751302 34.6968889,23.7804041 L32.424,23.7804041 L32.424,22.0999959 L32.424,21.4381592 Z M38.5653333,27.6106082 L32.424,27.6106082 L32.424,25.1510163 L34.6471111,25.1510163 C34.68,25.1510163 34.7128889,25.1463224 34.7466667,25.1453837 L38.5653333,25.1453837 L38.5653333,27.6106082 Z M39.2124444,23.7804041 L37.3715556,23.7804041 C37.8648889,23.141098 38.1626667,22.3262408 38.1626667,21.4381592 C38.1626667,19.3916286 36.5857778,17.725302 34.6471111,17.725302 C33.2453333,17.725302 32.0382222,18.5974245 31.4728889,19.8535061 C30.9591111,19.3578327 30.2835556,19.0480367 29.536,19.0480367 C27.9431111,19.0480367 26.6462222,20.4177102 26.6462222,22.0999959 C26.6462222,22.7205265 26.8248889,23.2978735 27.128,23.7804041 L24.3431111,23.7804041 C23.9866667,23.7804041 23.6968889,24.0864449 23.6968889,24.4628939 L23.6968889,28.2940367 C23.6968889,28.6704857 23.9866667,28.9765265 24.3431111,28.9765265 L24.6675556,28.9765265 L24.6675556,38.6487306 C24.6675556,39.0261184 24.9564444,39.3312204 25.3128889,39.3312204 L38.2426667,39.3312204 C38.5991111,39.3312204 38.8897778,39.0261184 38.8897778,38.6487306 L38.8897778,28.9765265 L39.2124444,28.9765265 C39.5688889,28.9765265 39.8586667,28.6704857 39.8586667,28.2940367 L39.8586667,24.4628939 C39.8586667,24.0864449 39.5688889,23.7804041 39.2124444,23.7804041 L39.2124444,23.7804041 Z" id="Fill-18"></path>
                    </g>
                </g>
            </g>
        </g>
    </g>
</svg>