<?xml version="1.0" encoding="UTF-8"?>
<svg width="52px" height="46px" viewBox="0 0 52 46" version="1.1" xmlns="http://www.w3.org/2000/svg" xmlns:xlink="http://www.w3.org/1999/xlink">
    <!-- Generator: Sketch 54.1 (76490) - https://sketchapp.com -->
    <title>Group 24</title>
    <desc>Created with Sketch.</desc>
    <defs>
        <polygon id="path-1" points="0.00028125 0.428081633 45.0002813 0.428081633 45.0002813 45.0609429 0.00028125 45.0609429"></polygon>
    </defs>
    <g id="Homepage" stroke="none" stroke-width="1" fill="none" fill-rule="evenodd">
        <g id="Homepage---logged-out" transform="translate(-767.000000, -2002.000000)">
            <g id="Group-24" transform="translate(767.000000, 2002.000000)">
                <path d="M52,27.5004688 C52,36.6133258 44.3892709,44 35,44 C25.6116952,44 18,36.6133258 18,27.5004688 C18,18.3876119 25.6116952,11 35,11 C44.3892709,11 52,18.3876119 52,27.5004688" id="Fill-1" fill="#E5F3EB"></path>
                <path d="M19.7023111,15 L31.2976889,15 C31.685071,15 32,14.7764787 32,14.4993122 C32,14.2235213 31.685071,14 31.2976889,14 L19.7023111,14 C19.314929,14 19,14.2235213 19,14.4993122 C19,14.7764787 19.314929,15 19.7023111,15" id="Fill-3" fill="#1A171B"></path>
                <path d="M19.5942632,21 L29.4057368,21 C29.7335216,21 30,20.7764787 30,20.4993122 C30,20.2235213 29.7335216,20 29.4057368,20 L19.5942632,20 C19.2664784,20 19,20.2235213 19,20.4993122 C19,20.7764787 19.2664784,21 19.5942632,21" id="Fill-5" fill="#1A171B"></path>
                <path d="M23.2565771,25 L13.7434229,25 C13.3323417,25 13,25.2233677 13,25.4996564 C13,25.775945 13.3323417,26 13.7434229,26 L23.2565771,26 C23.6676583,26 24,25.775945 24,25.4996564 C24,25.2233677 23.6676583,25 23.2565771,25" id="Fill-7" fill="#1A171B"></path>
                <path d="M9.75492568,26 L11.2450743,26 C11.6619426,26 12,25.775945 12,25.4989691 C12,25.2233677 11.6619426,25 11.2450743,25 L9.75492568,25 C9.33805738,25 9,25.2233677 9,25.4989691 C9,25.775945 9.33805738,26 9.75492568,26" id="Fill-9" fill="#1A171B"></path>
                <path d="M23.2536117,31 L13.745363,31 C13.3332091,31 13,31.2235213 13,31.5 C13,31.7764787 13.3332091,32 13.745363,32 L23.2536117,32 C23.6647404,32 24,31.7764787 24,31.5 C24,31.2235213 23.6647404,31 23.2536117,31" id="Fill-11" fill="#1A171B"></path>
                <path d="M9.75492568,32 L11.2450743,32 C11.6619426,32 12,31.7764787 12,31.4993122 C12,31.2235213 11.6619426,31 11.2450743,31 L9.75492568,31 C9.33805738,31 9,31.2235213 9,31.4993122 C9,31.7764787 9.33805738,32 9.75492568,32" id="Fill-13" fill="#1A171B"></path>
                <path d="M9.68723605,35 C9.30774581,35 9,35.224055 9,35.5003436 C9,35.7766323 9.30774581,36 9.68723605,36 L27.313708,36 C27.6922542,36 28,35.7766323 28,35.5003436 C28,35.224055 27.6922542,35 27.313708,35 L9.68723605,35 Z" id="Fill-15" fill="#1A171B"></path>
                <path d="M9.68723605,39 C9.30774581,39 9,39.224055 9,39.5003436 C9,39.7766323 9.30774581,40 9.68723605,40 L27.313708,40 C27.6922542,40 28,39.7766323 28,39.5003436 C28,39.224055 27.6922542,39 27.313708,39 L9.68723605,39 Z" id="Fill-15" fill="#1A171B"></path>
                <g id="Group-19">
                    <mask id="mask-2" fill="white">
                        <use xlink:href="#path-1"></use>
                    </mask>
                    <g id="Clip-18"></g>
                    <path d="M35.2043438,36.1191061 C30.5552813,36.1191061 26.7715313,32.3311469 26.7715313,27.6757592 C26.7715313,23.0194327 30.5552813,19.2324122 35.2043438,19.2324122 C39.8534063,19.2324122 43.6371563,23.0194327 43.6371563,27.6757592 C43.6371563,32.3311469 39.8534063,36.1191061 35.2043438,36.1191061 L35.2043438,36.1191061 Z M5.67215625,43.6950245 L5.67215625,10.4220041 L30.8965313,10.4220041 C31.2734063,10.4220041 31.5780938,10.1159633 31.5780938,9.73857551 C31.5780938,9.36118776 31.2734063,9.05608571 30.8965313,9.05608571 C28.8968438,9.05608571 27.2702813,7.4273102 27.2702813,5.42584082 C27.2702813,3.42343265 28.8968438,1.79465714 30.8965313,1.79465714 C32.8962188,1.79465714 34.5218438,3.42343265 34.5218438,5.42584082 L34.5218438,17.9012286 C29.4387188,18.2542082 25.4074688,22.4965347 25.4074688,27.6757592 C25.4074688,32.8531061 29.4387188,37.0973102 34.5218438,37.4502898 L34.5218438,43.6950245 L5.67215625,43.6950245 Z M1.36434375,5.42584082 C1.36434375,3.42343265 2.99090625,1.79465714 4.98965625,1.79465714 L7.05121875,1.79465714 L27.4718438,1.79465714 C26.5090313,2.70526939 25.9071563,3.99702449 25.9071563,5.42584082 C25.9071563,6.85465714 26.5090313,8.14453469 27.4718438,9.05608571 L4.98965625,9.05608571 C2.99090625,9.05608571 1.36434375,7.4273102 1.36434375,5.42584082 L1.36434375,5.42584082 Z M45.0002813,27.6757592 C45.0002813,22.4965347 40.9690313,18.2542082 35.8859063,17.9012286 L35.8859063,5.42584082 C35.8859063,2.67053469 33.6471563,0.428738776 30.8965313,0.4278 L6.75871875,0.4278 L4.98965625,0.4278 C2.23809375,0.4278 0.00028125,2.66959592 0.00028125,5.42584082 C0.00028125,7.94739184 1.87903125,10.0342898 4.30809375,10.3694327 L4.30809375,44.3784531 C4.30809375,44.7558408 4.61371875,45.0609429 4.98965625,45.0609429 L35.2043438,45.0609429 C35.5802813,45.0609429 35.8859063,44.7558408 35.8859063,44.3784531 L35.8859063,37.4502898 C40.9690313,37.0973102 45.0002813,32.8531061 45.0002813,27.6757592 L45.0002813,27.6757592 Z" id="Fill-17" fill="#1A171B" mask="url(#mask-2)"></path>
                </g>
                <g id="Fill-23" transform="translate(8.000000, 13.000000)" fill="#1A171B">
                    <path d="M4.5,7.54601977 C2.82052589,7.54601977 1.45383204,6.18010396 1.45383204,4.50045867 C1.45383204,2.82081337 2.82052589,1.45398023 4.5,1.45398023 C6.17947411,1.45398023 7.54616796,2.82081337 7.54616796,4.50045867 C7.54616796,6.18010396 6.17947411,7.54601977 4.5,7.54601977 M4.5,0 C2.01885446,0 0,2.01906024 0,4.50045867 C0,6.9818571 2.01885446,9 4.5,9 C6.98114554,9 9,6.9818571 9,4.50045867 C9,2.01906024 6.98114554,0 4.5,0" id="Fill-20"></path>
                </g>
                <path d="M39.4374375,27.4318871 C39.7439436,27.4280839 39.9961925,27.6733944 40,27.9795572 L40,27.9976227 C40,30.7483337 37.7554614,32.990358 35.0007139,32.990358 C33.7518443,32.990358 32.5715102,32.5216057 31.66627,31.7124612 L31.66627,32.4331798 C31.6729332,32.7393426 31.4302032,32.9941613 31.1227452,32.9998662 C30.8162391,33.0065219 30.5620865,32.7640638 30.5554233,32.457901 L30.5554233,32.4331798 L30.5554233,30.213975 C30.5554233,29.9078122 30.8057684,29.6596492 31.1122745,29.6596492 L31.1132264,29.6596492 L33.3311123,29.6596492 C33.6385703,29.6596492 33.8870116,29.9078122 33.8870116,30.2158767 C33.8870116,30.5220394 33.6385703,30.7711533 33.3311123,30.7711533 L32.2868973,30.7711533 C33.0036647,31.4700031 33.9707772,31.8807556 35.0007139,31.8807556 C37.1557755,31.8807556 38.8882014,30.1493195 38.8882014,27.9976227 C38.8824901,27.6905091 39.126172,27.437592 39.4326781,27.4318871 L39.4374375,27.4318871 Z M38.8796345,23.0001333 C39.1861406,22.9934776 39.4402932,23.2368865 39.4460045,23.5440001 L39.4460045,23.5658689 L39.4460045,25.7850736 C39.4450526,26.0921872 39.1956594,26.3393994 38.8882014,26.3384486 L36.6655561,26.3384486 C36.35905,26.3441535 36.1048974,26.1016954 36.0982343,25.7945818 C36.0915711,25.488419 36.3343011,25.2345511 36.6408072,25.2278954 L36.6655561,25.2278954 L37.7135786,25.2278954 C36.9968112,24.5290456 36.0306506,24.118293 35.0007139,24.118293 C32.8466042,24.118293 31.108467,25.8535324 31.108467,28.00618 C31.1351197,28.311392 30.9085717,28.5795222 30.6030175,28.606145 C30.2974632,28.6327679 30.0280805,28.4055228 30.0014278,28.1003108 C29.9995241,28.0689339 29.9995241,28.037557 30.0014278,28.00618 C30.0014278,25.2545183 32.2459664,23.0077398 35.0007139,23.0077398 C36.2514873,23.0077398 37.4308695,23.4793446 38.3351578,24.2894399 L38.3351578,23.5658689 C38.3284946,23.2587553 38.5731284,23.0058382 38.8796345,23.0001333 L38.8796345,23.0001333 Z" id="Fill-22" fill="#000000"></path>
            </g>
        </g>
    </g>
</svg>