<?xml version="1.0" encoding="UTF-8"?>
<svg width="51px" height="49px" viewBox="0 0 51 49" version="1.1" xmlns="http://www.w3.org/2000/svg" xmlns:xlink="http://www.w3.org/1999/xlink">
    <!-- Generator: Sketch 54.1 (76490) - https://sketchapp.com -->
    <title>Group 23</title>
    <desc>Created with Sketch.</desc>
    <defs>
        <polygon id="path-1" points="0.922413462 0.97902 18.634125 0.97902 18.634125 48.019902 0.922413462 48.019902"></polygon>
        <polygon id="path-3" points="0 0.320754 27.9372659 0.320754 27.9372659 42.14 0 42.14"></polygon>
    </defs>
    <g id="Homepage" stroke="none" stroke-width="1" fill="none" fill-rule="evenodd">
        <g id="Homepage---logged-out" transform="translate(-342.000000, -2263.000000)">
            <g id="Group-23" transform="translate(342.000000, 2263.000000)">
                <g id="Group-21">
                    <path d="M50.3464154,27.432424 C50.3464154,36.820144 42.7358179,44.432424 33.3453314,44.432424 C23.9570128,44.432424 16.3464154,36.820144 16.3464154,27.432424 C16.3464154,18.044704 23.9570128,10.432424 33.3453314,10.432424 C42.7358179,10.432424 50.3464154,18.044704 50.3464154,27.432424" id="Fill-1" fill="#E5F3EB"></path>
                    <g id="Group-5" transform="translate(28.442308, 0.000882)">
                        <mask id="mask-2" fill="white">
                            <use xlink:href="#path-1"></use>
                        </mask>
                        <g id="Clip-4"></g>
                        <path d="M17.2080865,45.169082 C17.2080865,45.955042 16.5676442,46.594002 15.7820481,46.594002 L3.77547115,46.594002 C2.98791346,46.594002 2.34943269,45.955042 2.34943269,45.169082 L2.34943269,33.762862 L11.621625,33.762862 C12.0158942,33.762862 12.3346442,33.444362 12.3346442,33.051382 L12.3346442,23.072042 C12.3346442,22.678082 12.0158942,22.359582 11.621625,22.359582 L2.35335577,22.359582 C2.37297115,20.162422 3.03989423,18.078942 4.28645192,16.329642 C5.72720192,14.311822 7.426875,11.158182 7.62008654,7.343042 L11.9364519,7.343042 C12.1277019,11.157202 13.8293365,14.311822 15.268125,16.329642 C16.5372404,18.107362 17.2080865,20.229062 17.2080865,22.465422 L17.2080865,45.169082 Z M2.34845192,32.337942 L10.907625,32.337942 L10.907625,23.783522 L2.34845192,23.783522 L2.34845192,32.337942 Z M6.56772115,2.404822 L12.9868558,2.404822 L12.9868558,5.918122 L12.6308365,5.918122 L6.92472115,5.918122 L6.56772115,5.918122 L6.56772115,2.404822 Z M16.4313173,15.501542 C15.1131635,13.655222 13.5792404,10.780882 13.3830865,7.343042 L13.7018365,7.343042 C14.095125,7.343042 14.413875,7.024542 14.413875,6.631562 L14.413875,1.693342 C14.413875,1.299382 14.095125,0.978922 13.7018365,0.978922 L5.85568269,0.978922 C5.45945192,0.978922 5.14070192,1.299382 5.14070192,1.693342 L5.14070192,6.631562 C5.14070192,7.024542 5.45945192,7.343042 5.85568269,7.343042 L6.17247115,7.343042 C5.97827885,10.780882 4.44141346,13.657182 3.12620192,15.501542 C1.68349038,17.522302 0.922413462,19.930162 0.922413462,22.465422 L0.922413462,23.072042 L0.922413462,33.051382 L0.922413462,45.169082 C0.922413462,46.741002 2.20035577,48.019902 3.77547115,48.019902 L15.7820481,48.019902 C17.3542212,48.019902 18.634125,46.741002 18.634125,45.169082 L18.634125,22.465422 C18.634125,19.930162 17.8720673,17.522302 16.4313173,15.501542 L16.4313173,15.501542 Z" id="Fill-3" fill="#1A171B" mask="url(#mask-2)"></path>
                    </g>
                    <path d="M42.4992808,43.031898 L33.9401077,43.031898 C33.5458385,43.031898 33.2270885,43.350398 33.2270885,43.744358 C33.2270885,44.138318 33.5458385,44.456818 33.9401077,44.456818 L42.4992808,44.456818 C42.89355,44.456818 43.2132808,44.138318 43.2132808,43.744358 C43.2132808,43.350398 42.89355,43.031898 42.4992808,43.031898" id="Fill-6" fill="#1A171B"></path>
                    <path d="M42.4992808,39.466952 L33.9401077,39.466952 C33.5458385,39.466952 33.2270885,39.785452 33.2270885,40.180392 C33.2270885,40.574352 33.5458385,40.892852 33.9401077,40.892852 L42.4992808,40.892852 C42.89355,40.892852 43.2132808,40.574352 43.2132808,40.180392 C43.2132808,39.785452 42.89355,39.466952 42.4992808,39.466952" id="Fill-8" fill="#1A171B"></path>
                    <path d="M42.4992808,35.902986 L33.9401077,35.902986 C33.5458385,35.902986 33.2270885,36.221486 33.2270885,36.616426 C33.2270885,37.010386 33.5458385,37.328886 33.9401077,37.328886 L42.4992808,37.328886 C42.89355,37.328886 43.2132808,37.010386 43.2132808,36.616426 C43.2132808,36.221486 42.89355,35.902986 42.4992808,35.902986" id="Fill-10" fill="#1A171B"></path>
                    <path d="M42.4992808,18.796106 L33.9401077,18.796106 C33.5458385,18.796106 33.2270885,19.115586 33.2270885,19.509546 C33.2270885,19.902526 33.5458385,20.221026 33.9401077,20.221026 L42.4992808,20.221026 C42.89355,20.221026 43.2132808,19.902526 43.2132808,19.509546 C43.2132808,19.115586 42.89355,18.796106 42.4992808,18.796106" id="Fill-12" fill="#1A171B"></path>
                    <g id="Group-16" transform="translate(0.000000, 5.880882)">
                        <mask id="mask-4" fill="white">
                            <use xlink:href="#path-3"></use>
                        </mask>
                        <g id="Clip-15"></g>
                        <path d="M9.58407692,8.771294 L6.05919231,5.624514 L10.6992115,5.624514 C10.2490385,6.575114 9.86948077,7.624694 9.58407692,8.771294 L9.58407692,8.771294 Z M17.6548269,1.745674 C21.8221154,1.745674 24.8556346,6.933794 24.9556731,14.127974 C24.3887885,13.903554 23.8650577,13.569374 23.4188077,13.123474 C23.1392885,12.845154 22.6881346,12.845154 22.4095962,13.123474 C20.6481346,14.885514 17.7793846,14.885514 16.0189038,13.123474 C15.7384038,12.845154 15.28725,12.845154 15.0087115,13.123474 C14.1544615,13.978034 13.0206923,14.447454 11.8133654,14.447454 C11.3082692,14.447454 10.8169038,14.360234 10.3500577,14.201474 C10.4285192,6.968094 13.4728269,1.745674 17.6548269,1.745674 L17.6548269,1.745674 Z M7.60880769,13.123474 C6.85263462,13.880034 5.89148077,14.308294 4.90384615,14.416094 L4.90384615,6.504554 L9.2565,10.389274 C9.09565385,11.354574 8.99169231,12.368874 8.9505,13.425314 C8.83476923,13.331234 8.72492308,13.230294 8.61801923,13.123474 C8.33948077,12.845154 7.88832692,12.845154 7.60880769,13.123474 L7.60880769,13.123474 Z M27.2232115,35.011774 C27.6174808,35.011774 27.9362308,34.693274 27.9362308,34.299314 C27.9362308,33.904374 27.6174808,33.585874 27.2232115,33.585874 L1.42701923,33.585874 L1.42701923,15.069754 C3.51213462,16.279074 6.18276923,16.117374 8.11292308,14.582694 C10.2706154,16.298674 13.3561154,16.298674 15.5138077,14.582694 C17.6715,16.298674 20.7560192,16.298674 22.9137115,14.582694 C24.1475192,15.566614 25.7098846,16.019374 27.3065769,15.833174 C27.6979038,15.787114 27.9784038,15.434314 27.9323077,15.042314 C27.8871923,14.652274 27.5478462,14.370034 27.1398462,14.418054 C26.8887692,14.447454 26.6396538,14.449414 26.3905385,14.435694 C26.3748462,6.254654 22.7067692,0.320754 17.6548269,0.320754 C15.1666154,0.320754 13.01775,1.763314 11.4720577,4.199594 L4.19082692,4.199594 C4.18396154,4.199594 4.17709615,4.203514 4.17023077,4.203514 C4.11825,4.205474 4.06725,4.221154 4.01625,4.234874 C3.97701923,4.245654 3.93582692,4.248594 3.89953846,4.263294 C3.86521154,4.279954 3.83480769,4.308374 3.80146154,4.329934 C3.75732692,4.360314 3.71123077,4.385794 3.67396154,4.425974 C3.66905769,4.429894 3.66219231,4.431854 3.65826923,4.437734 C3.63375,4.464194 3.62492308,4.498494 3.60530769,4.526914 C3.57686538,4.570034 3.54744231,4.611194 3.52782692,4.660194 C3.51017308,4.708214 3.50526923,4.759174 3.49742308,4.809154 C3.49251923,4.844434 3.47682692,4.875794 3.47682692,4.912054 L3.47682692,14.344554 C2.64807692,14.171094 1.85953846,13.766354 1.21713462,13.123474 C1.01313462,12.919634 0.707134615,12.859854 0.440365385,12.969614 C0.172615385,13.079374 0,13.340054 0,13.628174 L0,36.764014 C0,39.728514 2.41367308,42.140294 5.37951923,42.140294 L27.2232115,42.140294 C27.6174808,42.140294 27.9362308,41.821794 27.9362308,41.426854 C27.9362308,41.032894 27.6174808,40.714394 27.2232115,40.714394 L5.37951923,40.714394 C3.19926923,40.714394 1.42701923,38.942554 1.42701923,36.764014 L1.42701923,35.011774 L27.2232115,35.011774 Z" id="Fill-14" fill="#1A171B" mask="url(#mask-4)"></path>
                    </g>
                    <path d="M15.1727942,12.71893 C16.5174288,11.78303 18.7898712,11.78205 20.1354865,12.71893 C20.2600442,12.80517 20.401275,12.84633 20.5425058,12.84633 C20.7680827,12.84633 20.9897365,12.73951 21.128025,12.54057 C21.3536019,12.21815 21.2741596,11.77421 20.9514865,11.54881 C19.100775,10.26109 16.206525,10.26207 14.3567942,11.54881 C14.0341212,11.77421 13.9546788,12.21815 14.179275,12.54057 C14.4048519,12.86299 14.8501212,12.94433 15.1727942,12.71893" id="Fill-17" fill="#1A171B"></path>
                    <path d="M14.2494981,17.404604 C16.1266904,15.895404 19.1817865,15.896384 21.0579981,17.404604 C21.1894212,17.509464 21.347325,17.561404 21.5042481,17.561404 C21.7131519,17.561404 21.9200942,17.470264 22.061325,17.295824 C22.3074981,16.988104 22.2594404,16.540244 21.9524596,16.293284 C19.5809596,14.389144 15.7255558,14.390124 13.3550365,16.293284 C13.0480558,16.540244 12.9999981,16.988104 13.2481327,17.295824 C13.493325,17.600604 13.9434981,17.650584 14.2494981,17.404604" id="Fill-19" fill="#1A171B"></path>
                </g>
            </g>
        </g>
    </g>
</svg>