<svg xmlns="http://www.w3.org/2000/svg" xmlns:xlink="http://www.w3.org/1999/xlink" width="130.802" height="44.466" viewBox="0 0 130.802 44.466">
  <defs>
    <clipPath id="clip-path">
      <path id="Clip_49" data-name="Clip 49" d="M0,0H20.283V18.906H0Z" transform="translate(0 0.594)" fill="none"/>
    </clipPath>
    <clipPath id="clip-path-2">
      <path id="Clip_60" data-name="Clip 60" d="M0,0H12.641V15.632H0Z" transform="translate(0.26 0.13)" fill="none"/>
    </clipPath>
  </defs>
  <g id="Logo" transform="translate(0 -0.365)">
    <g id="Group_63" data-name="Group 63">
      <g id="Group_62" data-name="Group 62">
        <path id="Fill_22" data-name="Fill 22" d="M3.885,1.927A1.942,1.942,0,1,1,1.942,0,1.935,1.935,0,0,1,3.885,1.927" transform="translate(59.772 16.38)" fill="#fec10d"/>
        <path id="Fill_24" data-name="Fill 24" d="M3.885,1.927A1.942,1.942,0,1,1,1.942,0,1.935,1.935,0,0,1,3.885,1.927" transform="translate(68.487 8.472)" fill="#fec10d"/>
        <path id="Fill_26" data-name="Fill 26" d="M4.606,4.113A5.264,5.264,0,0,1,2.3,8.226,5.264,5.264,0,0,1,0,4.113,5.264,5.264,0,0,1,2.3,0a5.264,5.264,0,0,1,2.3,4.113" transform="translate(63.178 0.365)" fill="#fec10d"/>
        <path id="Fill_28" data-name="Fill 28" d="M4.645,1.377A5.239,5.239,0,0,1,5.947,5.9,5.34,5.34,0,0,1,1.388,4.609,5.239,5.239,0,0,1,.085.085a5.34,5.34,0,0,1,4.56,1.292" transform="translate(57.92 8.409)" fill="#fec10d"/>
        <path id="Fill_30" data-name="Fill 30" d="M4.741.609A5.258,5.258,0,0,1,7.179,4.646a5.348,5.348,0,0,1-4.741-.078A5.256,5.256,0,0,1,0,.532,5.347,5.347,0,0,1,4.741.609" transform="translate(50.184 12.288)" fill="#fec10d"/>
        <path id="Fill_32" data-name="Fill 32" d="M4.683.272A5.275,5.275,0,0,1,7.789,3.827a5.336,5.336,0,0,1-4.682.74A5.272,5.272,0,0,1,0,1.013,5.341,5.341,0,0,1,4.683.272" transform="translate(53.733 20.702)" fill="#fec10d"/>
        <path id="Fill_34" data-name="Fill 34" d="M4.6,4.694A5.311,5.311,0,0,1,.763,7.456,5.235,5.235,0,0,1,.427,2.762,5.315,5.315,0,0,1,4.267,0,5.238,5.238,0,0,1,4.6,4.694" transform="translate(65.804 14.162)" fill="#fec10d"/>
        <path id="Fill_36" data-name="Fill 36" d="M4.74,4.568A5.337,5.337,0,0,1,0,4.645,5.259,5.259,0,0,1,2.438.609,5.347,5.347,0,0,1,7.179.532,5.259,5.259,0,0,1,4.74,4.568" transform="translate(73.714 12.288)" fill="#fec10d"/>
        <path id="Fill_38" data-name="Fill 38" d="M4.683,4.567A5.341,5.341,0,0,1,0,3.826,5.274,5.274,0,0,1,3.108.272a5.338,5.338,0,0,1,4.682.741A5.274,5.274,0,0,1,4.683,4.567" transform="translate(69.599 20.706)" fill="#fec10d"/>
        <path id="Fill_40" data-name="Fill 40" d="M8.251,15.6C3.547,15.6,0,12.249,0,7.8S3.535,0,8.222,0c4.7,0,8.251,3.354,8.251,7.8S12.939,15.6,8.251,15.6Zm0-11.761A3.8,3.8,0,0,0,4.456,7.8a3.785,3.785,0,1,0,7.562,0A3.781,3.781,0,0,0,8.251,3.842Z" transform="translate(22.297 29.228)" fill="#fff"/>
        <path id="Fill_42" data-name="Fill 42" d="M4.2,14.94H.2a.2.2,0,0,1-.2-.2V.2A.2.2,0,0,1,.2,0h4a.2.2,0,0,1,.2.2V14.74a.2.2,0,0,1-.2.2" transform="translate(63.22 29.56)" fill="#fff"/>
        <path id="Fill_44" data-name="Fill 44" d="M8.251,15.6C3.547,15.6,0,12.249,0,7.8S3.536,0,8.224,0s8.25,3.354,8.25,7.8S12.939,15.6,8.251,15.6Zm0-11.761A3.8,3.8,0,0,0,4.456,7.8a3.785,3.785,0,1,0,7.563,0A3.782,3.782,0,0,0,8.251,3.842Z" transform="translate(83.712 29.228)" fill="#fff"/>
        <path id="Fill_46" data-name="Fill 46" d="M14.019,15.271H10.05a.2.2,0,0,1-.2-.2V6.5c0-1.8-.475-2.441-1.819-2.441a3.5,3.5,0,0,0-3.4,2.569A5.437,5.437,0,0,0,4.4,8.38v6.691a.2.2,0,0,1-.2.2H.2a.2.2,0,0,1-.2-.2V.531a.2.2,0,0,1,.2-.2H4.059a.2.2,0,0,1,.2.2V1.982A5.99,5.99,0,0,1,8.863,0c3.555,0,5.358,1.946,5.358,5.785v9.286a.2.2,0,0,1-.2.2" transform="translate(102.128 29.229)" fill="#fff"/>
        <g id="Group_50" data-name="Group 50" transform="translate(0 25)">
          <path id="Clip_49-2" data-name="Clip 49" d="M0,0H20.283V18.906H0Z" transform="translate(0 0.594)" fill="none"/>
          <g id="Group_50-2" data-name="Group 50" clip-path="url(#clip-path)">
            <path id="Fill_48" data-name="Fill 48" d="M20.08,18.906H16.037a.2.2,0,0,1-.2-.2c0-4.583-.355-9.784-.478-11.381a34.983,34.983,0,0,0-3.9,6.975.2.2,0,0,1-.185.121H9.006A.2.2,0,0,1,8.82,14.3a34.935,34.935,0,0,0-3.9-6.975c-.122,1.6-.476,6.8-.476,11.381a.2.2,0,0,1-.2.2H.2a.2.2,0,0,1-.2-.2C0,12.495.458,4.35,1.482.153A.2.2,0,0,1,1.678,0h3.2a.2.2,0,0,1,.15.068,35.5,35.5,0,0,1,5.113,7.426A35.56,35.56,0,0,1,15.253.068.2.2,0,0,1,15.4,0h3.2a.2.2,0,0,1,.2.153c1.024,4.2,1.482,12.341,1.482,18.553a.2.2,0,0,1-.2.2" transform="translate(0 0.594)" fill="#fff"/>
          </g>
        </g>
        <path id="Fill_51" data-name="Fill 51" d="M4.2,15.134H.2a.2.2,0,0,1-.2-.2V.394a.2.2,0,0,1,.2-.2H4.06a.2.2,0,0,1,.2.2V2.212A5.067,5.067,0,0,1,8.335,0a4.539,4.539,0,0,1,.557.038.2.2,0,0,1,.176.2V4.155a.2.2,0,0,1-.227.2,5.865,5.865,0,0,0-.7-.042A3.586,3.586,0,0,0,4.687,6.965,7.044,7.044,0,0,0,4.4,9.127v5.807a.2.2,0,0,1-.2.2" transform="translate(40.915 29.366)" fill="#fff"/>
        <path id="Fill_53" data-name="Fill 53" d="M4.2,15.134H.2a.2.2,0,0,1-.2-.2V.394a.2.2,0,0,1,.2-.2H4.06a.2.2,0,0,1,.2.2V2.211A5.068,5.068,0,0,1,8.335,0a4.539,4.539,0,0,1,.557.038.2.2,0,0,1,.176.2V4.155A.2.2,0,0,1,9,4.3a.2.2,0,0,1-.158.048,6.17,6.17,0,0,0-.7-.041A3.586,3.586,0,0,0,4.687,6.965,7.044,7.044,0,0,0,4.4,9.127v5.807a.2.2,0,0,1-.2.2" transform="translate(52.063 29.366)" fill="#fff"/>
        <path id="Fill_55" data-name="Fill 55" d="M4.716,2.34A2.358,2.358,0,1,1,2.358,0,2.35,2.35,0,0,1,4.716,2.34" transform="translate(63.091 23.253)" fill="#fff"/>
        <path id="Fill_57" data-name="Fill 57" d="M7.8,6.055l-.519-.161c-1.483-.457-2.4-.762-2.4-1.456V4.382c0-.586.658-.959,1.543-.95A7.858,7.858,0,0,1,9.923,4.5l.015.007a.2.2,0,0,0,.091.022.2.2,0,0,0,.182-.115l1.6-2.745a.192.192,0,0,0,.022-.09.2.2,0,0,0-.107-.175A10.968,10.968,0,0,0,6.512,0c-3.645,0-6,1.76-6,4.648V4.7c0,2.855,2.3,3.977,4.875,4.665.211.059.419.116.624.17,1.563.473,2.208.8,2.218,1.541v.056c-.061.578-.618.9-1.651.884a8.1,8.1,0,0,1-4.483-1.612L2.08,10.4a.2.2,0,0,0-.11-.033.2.2,0,0,0-.168.09L.044,13.136A.193.193,0,0,0,0,13.26a.2.2,0,0,0,.092.167,10.308,10.308,0,0,0,6.179,2.2c3.988.011,6.371-1.746,6.371-4.822v-.056c0-2.761-2.413-3.96-4.844-4.7" transform="translate(69.508 29.06)" fill="#fff"/>
        <g id="Group_61" data-name="Group 61" transform="translate(117.9 29)">
          <path id="Clip_60-2" data-name="Clip 60" d="M0,0H12.641V15.632H0Z" transform="translate(0.26 0.13)" fill="none"/>
          <g id="Group_61-2" data-name="Group 61" clip-path="url(#clip-path-2)">
            <path id="Fill_59" data-name="Fill 59" d="M7.8,6.056c-.175-.056-.349-.108-.518-.161-1.483-.458-2.4-.763-2.4-1.456V4.383c0-.586.657-.959,1.542-.95A7.868,7.868,0,0,1,9.923,4.5l.015.008a.2.2,0,0,0,.091.022.2.2,0,0,0,.181-.115l1.6-2.745a.192.192,0,0,0,.022-.09.2.2,0,0,0-.107-.175A10.972,10.972,0,0,0,6.512,0c-3.646,0-6,1.76-6,4.649V4.7c0,2.855,2.3,3.977,4.875,4.665.212.059.42.115.624.169,1.563.474,2.208.8,2.219,1.542v.056c-.061.578-.619.9-1.652.883a8.091,8.091,0,0,1-4.482-1.612L2.08,10.4a.193.193,0,0,0-.111-.033.2.2,0,0,0-.167.09L.044,13.136a.2.2,0,0,0,.047.292,10.321,10.321,0,0,0,6.179,2.2c3.988.011,6.371-1.746,6.371-4.822v-.056c0-2.761-2.413-3.961-4.845-4.7" transform="translate(0.26 0.13)" fill="#fff"/>
          </g>
        </g>
      </g>
    </g>
  </g>
</svg>
