<svg xmlns="http://www.w3.org/2000/svg" xmlns:xlink="http://www.w3.org/1999/xlink" width="2197" height="428" viewBox="0 0 2197 428">
  <defs>
    <clipPath id="clip-path">
      <path id="Clip_2" data-name="Clip 2" d="M0,0H312.244V36.438H0Z" fill="none"/>
    </clipPath>
    <clipPath id="clip-Artboard_1">
      <rect width="2197" height="428"/>
    </clipPath>
  </defs>
  <g id="Artboard_1" data-name="Artboard – 1" clip-path="url(#clip-Artboard_1)">
    <rect width="2197" height="428" fill="#fff"/>
    <g id="Group" transform="translate(-0.5 -1)">
      <g id="Group_3" data-name="Group 3" transform="translate(1758.239 278.436)">
        <path id="Clip_2-2" data-name="Clip 2" d="M0,0H312.244V36.438H0Z" transform="translate(0 0)" fill="none"/>
      </g>
      <g id="Group_7" data-name="Group 7" transform="translate(0 14.506)">
        <path id="Fill_4" data-name="Fill 4" d="M25.114,50.228A25.114,25.114,0,1,1,50.228,25.114,25.142,25.142,0,0,1,25.114,50.228Z" transform="translate(200.932 339.073)" fill="#00563e"/>
        <path id="Fill_6" data-name="Fill 6" d="M313.4,351.63c-24.614,0-43.282-14.009-43.446-14.151.356-1.529,9.206-37.3,43.209-49.641a63.351,63.351,0,0,1,21.66-3.8c24.6,0,43.267,14.009,43.453,14.15-.366,1.546-9.37,37.37-43.209,49.64A63.375,63.375,0,0,1,313.4,351.63Zm-199.194-.057a63.373,63.373,0,0,1-21.667-3.8c-34.437-12.489-43.12-49.272-43.2-49.64C51.325,296.677,69.314,284,92.782,284a63.4,63.4,0,0,1,21.678,3.8c34.449,12.486,43.12,49.272,43.2,49.64C155.679,338.893,137.69,351.573,114.211,351.573ZM227.8,296.79h-.011c-.217-.32-20.2-32.353-4.668-65.543,15.483-33.09,53.007-38.518,53.382-38.564.833,1.36,19.776,33.265,4.668,65.543-4.465,9.541-13.729,22.807-32.506,31.828A76.3,76.3,0,0,1,227.8,296.79Zm-67.476-19.316a26.917,26.917,0,1,1,27-26.922A26.993,26.993,0,0,1,160.325,277.475Zm200.211-38.666a81,81,0,0,1-33.376-7.437c.09-1.572,2.716-38.419,33.9-56.354a64.365,64.365,0,0,1,32.562-8.511,80.869,80.869,0,0,1,33.365,7.426c-.09,1.571-2.716,38.412-33.9,56.365A64.448,64.448,0,0,1,360.536,238.809Zm-294.089,0A64.283,64.283,0,0,1,33.9,230.3C2.569,212.262.09,175.5,0,173.944a81.52,81.52,0,0,1,33.353-7.437,64.184,64.184,0,0,1,32.562,8.511c31.335,18.024,33.817,54.786,33.907,56.343A82.346,82.346,0,0,1,66.447,238.809Zm110.2-42.87c-13.907,0-33.831-3.337-49.776-19.237-25.845-25.754-18.435-61.665-18.106-63.181l.08-.023a76.74,76.74,0,0,1,13.562-1.164c13.9,0,33.809,3.337,49.753,19.237,25.847,25.757,18.435,61.665,18.106,63.181l-.08.023A76.625,76.625,0,0,1,176.646,195.939Zm104.853-28.9a26.911,26.911,0,1,1,27-26.911A26.993,26.993,0,0,1,281.5,167.039Zm-68.775-52.161c-1.308-.868-32.043-21.681-32.043-57.439C180.68,21.018,212.38.206,212.7,0a78.235,78.235,0,0,1,16.5,15.575c10.152,12.639,15.518,27.116,15.518,41.864,0,35.774-30.691,56.56-32,57.428Z" transform="translate(0 0)" fill="#ffc20e"/>
      </g>
      <g id="Group_6" data-name="Group 6" transform="translate(527.447 0.918)">
        <path id="Fill_8" data-name="Fill 8" d="M1173.949,249.5c-60.04,0-105.316-43.5-105.316-101.179S1113.759,47.142,1173.6,47.142c60.047,0,105.327,43.5,105.327,101.179S1233.8,249.5,1173.949,249.5Zm0-152.526c-27.617,0-48.442,22.074-48.442,51.347s20.826,51.336,48.442,51.336c27.417,0,48.092-22.069,48.092-51.336S1201.366,96.975,1173.949,96.975ZM389.956,249.5c-60.046,0-105.327-43.5-105.327-101.179S329.759,47.142,389.606,47.142c60.046,0,105.327,43.5,105.327,101.179S449.8,249.5,389.956,249.5Zm0-152.526c-27.617,0-48.442,22.074-48.442,51.347s20.826,51.336,48.442,51.336c27.417,0,48.092-22.069,48.092-51.336S417.373,96.975,389.956,96.975ZM1588.914,248.609h-.494c-27.312-.073-50.905-8.622-78.891-28.584a2.593,2.593,0,0,1-1.175-2.159,2.638,2.638,0,0,1,.565-1.628l22.435-34.755a2.582,2.582,0,0,1,2.147-1.175,2.54,2.54,0,0,1,1.413.429l.17.1c22.518,14.8,38.563,20.661,57.224,20.921q.391,0,.775.005c12.5,0,19.513-3.965,20.293-11.466v-.723c-.126-9.7-8.836-14.006-28.313-19.994l-1.268-.347q-3.291-.9-6.689-1.846c-19.8-5.377-33.613-11.643-43.468-19.719-12.634-10.353-18.775-23.694-18.775-40.783v-.723c0-18.283,7.215-33.565,20.866-44.194,13.521-10.528,32.8-16.093,55.765-16.093,22.115,0,43.247,5.775,66.5,18.174a2.586,2.586,0,0,1,1.379,2.294,2.519,2.519,0,0,1-.282,1.164l-20.4,35.6a2.571,2.571,0,0,1-2.317,1.481,2.528,2.528,0,0,1-1.153-.283l-.192-.09c-19.77-9.943-31.891-13.693-44.724-13.834l-.387,0c-11.365,0-19.3,5.071-19.3,12.333v.723c0,8.833,11.08,12.74,30.663,18.886l1.257.394c1.758.551,3.549,1.113,5.355,1.7,28.795,8.871,61.847,23.814,61.847,60.931v.723c0,19.441-7.411,35.41-21.431,46.182C1634.384,242.953,1613.845,248.609,1588.914,248.609Zm-621.11-.916h-.452c-27.291-.068-50.884-8.616-78.891-28.584a2.615,2.615,0,0,1-1.164-2.17,2.644,2.644,0,0,1,.565-1.616L910.3,180.568a2.522,2.522,0,0,1,2.147-1.175,2.456,2.456,0,0,1,1.4.418l.17.113c22.532,14.787,38.576,20.65,57.224,20.91.136,0,.274,0,.413.006.157,0,.286.006.413.006,12.474,0,19.474-3.963,20.243-11.461v-.723c-.124-9.708-8.835-14.014-28.313-19.994l-.87-.237q-3.493-.949-7.087-1.967c-19.8-5.369-33.617-11.633-43.469-19.711C899.937,136.4,893.8,123.058,893.8,105.96v-.723c0-18.279,7.215-33.56,20.864-44.193,13.523-10.529,32.807-16.095,55.766-16.095,22.14,0,43.271,5.779,66.5,18.186a2.561,2.561,0,0,1,1.379,2.283,2.453,2.453,0,0,1-.282,1.164l-20.39,35.6a2.567,2.567,0,0,1-2.317,1.492,2.526,2.526,0,0,1-1.164-.294l-.181-.09c-19.78-9.941-31.9-13.687-44.724-13.823h-.384c-11.373,0-19.316,5.066-19.316,12.32v.723c0,8.848,11.08,12.75,30.663,18.886q1.68.52,3.38,1.062l1.932.611,1.311.418c28.79,8.885,61.836,23.839,61.836,60.931v.723c0,19.448-7.414,35.422-21.441,46.193C1013.3,242.037,992.752,247.693,967.8,247.693Zm514.848-2.487H1432a2.591,2.591,0,0,1-2.577-2.6V131.492c0-23.374-6.081-31.658-23.238-31.658-20.4,0-37.016,12.763-43.356,33.308-2.013,6.06-2.95,13.272-2.95,22.7v86.769a2.591,2.591,0,0,1-2.577,2.6h-51.019a2.591,2.591,0,0,1-2.577-2.6V54.026a2.591,2.591,0,0,1,2.577-2.6h49.245a2.591,2.591,0,0,1,2.577,2.6v18.83c10.355-11.735,28.974-25.713,58.739-25.713,45.388,0,68.4,25.246,68.4,75.037V242.607A2.6,2.6,0,0,1,1482.653,245.206Zm-622.029,0H809.616a2.591,2.591,0,0,1-2.577-2.6V54.026a2.591,2.591,0,0,1,2.577-2.6h51.008a2.6,2.6,0,0,1,2.588,2.6V242.607A2.6,2.6,0,0,1,860.623,245.206Zm-142.411,0H667.194a2.591,2.591,0,0,1-2.577-2.6V54.026a2.591,2.591,0,0,1,2.577-2.6h49.245a2.591,2.591,0,0,1,2.577,2.6V77.6c12.635-17.958,32.079-28.674,51.991-28.674a57.063,57.063,0,0,1,7.109.486,2.6,2.6,0,0,1,2.249,2.577v50.816a2.618,2.618,0,0,1-.87,1.944,2.557,2.557,0,0,1-1.684.656,2.9,2.9,0,0,1-.3-.02,76.018,76.018,0,0,0-8.991-.545c-16.1,0-36.133,9.041-44.079,34.416-2.457,7.777-3.651,16.949-3.651,28.041v75.308A2.591,2.591,0,0,1,718.213,245.206Zm-142.309,0H524.885a2.591,2.591,0,0,1-2.577-2.6V54.026a2.591,2.591,0,0,1,2.577-2.6h49.245a2.591,2.591,0,0,1,2.577,2.6V77.614c12.64-17.965,32.088-28.686,52-28.686a57.064,57.064,0,0,1,7.109.486,2.6,2.6,0,0,1,2.238,2.577v50.816a2.618,2.618,0,0,1-.87,1.944,2.49,2.49,0,0,1-1.7.656,1.8,1.8,0,0,1-.233-.019,77.878,77.878,0,0,0-9.046-.546c-16.1,0-36.133,9.041-44.08,34.416-2.449,7.7-3.639,16.869-3.639,28.041v75.308A2.6,2.6,0,0,1,575.9,245.206Zm-319.576,0H204.721a2.591,2.591,0,0,1-2.577-2.6c0-64.219-5.468-139.254-6.092-147.6-16.892,22.617-34.561,54.738-49.731,90.453a2.574,2.574,0,0,1-2.362,1.571h-29a2.574,2.574,0,0,1-2.362-1.571C97.4,149.725,79.73,117.6,62.853,95.008a.2.2,0,0,1,0,.076l-.018.24-.057.746c-1.408,19.273-6,86.8-6,146.536a2.591,2.591,0,0,1-2.577,2.6H2.577A2.591,2.591,0,0,1,0,242.607C0,162.106,5.85,56.486,18.92,1.989A2.553,2.553,0,0,1,21.418,0H62.265A2.57,2.57,0,0,1,64.2.87a463.312,463.312,0,0,1,65.26,96.319A463.163,463.163,0,0,1,194.718.87,2.57,2.57,0,0,1,196.651,0H237.5A2.553,2.553,0,0,1,240,1.989c13.07,54.519,18.92,160.133,18.92,240.617A2.6,2.6,0,0,1,256.328,245.206Z" transform="translate(0 26.146)" fill="#00563e"/>
        <g id="WHOLESALE_2" data-name="WHOLESALE 2" transform="translate(0 327.544)">
          <path id="WHOLESALE" d="M331.534,100.467a55.524,55.524,0,0,1-36.371-13.484A48.371,48.371,0,0,1,278.831,50.16a48.2,48.2,0,0,1,16.332-36.7,55.882,55.882,0,0,1,72.754,0,48.223,48.223,0,0,1,16.321,36.7,48.4,48.4,0,0,1-16.321,36.823A55.584,55.584,0,0,1,331.534,100.467Zm0-83.548a33.508,33.508,0,0,0-22.661,8.9c-4.677,4.371-10.251,12.195-10.251,24.639,0,16.562,12.311,33.693,32.913,33.693,16.184,0,32.924-12.6,32.924-33.693A32.9,32.9,0,0,0,331.534,16.92ZM44.362,99.574h-.011l-11.427-.011C21.074,81.094,3.233,28.274,0,2.114H17.926c4.1,21.025,14.458,56.5,21.181,69.047h.305c4.383-10.71,17.745-53.95,21.328-69.047H76.811C80.45,17.4,94.5,60.956,98.76,71h.317c6.743-12.572,17.112-49,20.548-68.888H136.94c-3.164,24.441-20.353,78.084-32.924,97.438l-11.122.011c-6.168-10.721-18.965-44-24.119-64.661H68.47C63.226,56.025,50.226,88.693,44.362,99.563Zm552.248-.011c-11.912,0-21.594-3.5-26.267-6.5l-2.012-18.581a48.8,48.8,0,0,0,27.815,9.065c9.674,0,15.925-4.685,15.925-11.935,0-7.128-4.116-11.111-14.682-14.207-18.413-5.278-27.363-14.813-27.363-29.149C570.027,14.642,579.969.9,602.182.9c9.878,0,18.859,2.818,23.023,5.436L621.5,21.9a39.818,39.818,0,0,0-18.706-5.29c-9.713,0-14.06,5.313-14.06,10.579,0,5.537,3.939,9,13.6,11.935,20.206,6.182,29.217,15.733,29.217,30.969C631.546,88.548,618.486,99.563,596.61,99.563Zm74.4-1.051H671L651.845,98.5c4.3-26.387,26.024-78.928,38.485-97.438H701.3c12.423,18.2,34.123,70.68,38.485,97.427L720.62,98.5c-1.671-8.018-3.694-15.84-6.024-23.26H676.88c-2.816,9.566-4.684,16.96-5.866,23.26Zm24.73-70.866a284.128,284.128,0,0,0-13.755,32.63h27.634a283.037,283.037,0,0,0-13.574-32.63ZM189.293,98.512h-.013L169.819,98.5V2.114h19.474V42H233.8V2.114h19.474V98.489L233.8,98.5V58.321H189.293V98.512Zm714.9-.011H844.224V2.114h55.02V17.982h-35.7V42.147h29.68V58.162h-29.68V82.643h40.655V98.5Zm-80.891,0H763.49V2.114h19.474v80.53H823.3V98.5ZM550.5,98.5H490.537V2.114h55.02V17.982h-35.7V42.147h29.68V58.162h-29.68V82.643H550.5V98.5Zm-80.88,0H409.8V2.114h19.474v80.53h40.338V98.5Z" transform="translate(0 0)" fill="#004e37"/>
        </g>
        <path id="Fill_11" data-name="Fill 11" d="M62.791,31.386A31.4,31.4,0,1,1,31.4,0,31.4,31.4,0,0,1,62.791,31.386" transform="translate(803.729)" fill="#00563e"/>
      </g>
    </g>
  </g>
</svg>
